<svg width="96" height="48" viewBox="0 0 96 48" fill="none" xmlns="http://www.w3.org/2000/svg">
<g clip-path="url(#clip0_4595_22547)">
<path d="M53.2782 10.7793V21.1918H52.3164V10.7793H53.2782Z" fill="#009188"/>
<path d="M42.7759 15.9652C42.7759 18.4729 44.6065 20.5295 46.6128 20.5295C47.7162 20.5295 48.7693 20.053 49.5971 19.1001L49.6725 19.0247L50.5499 20.0278L50.4248 20.1033C49.321 20.9058 48.1173 21.2818 46.7382 21.2818C43.7788 21.2818 41.3965 18.8992 41.3965 15.9652C41.3965 13.0561 43.7791 10.6738 46.7382 10.6738C48.1173 10.6738 49.321 11.0753 50.4248 11.8524L50.5499 11.9278L49.6725 12.931L49.5971 12.8307C48.7696 11.9027 47.7162 11.4013 46.6128 11.4013C44.6065 11.4013 42.7759 13.4824 42.7759 15.9652Z" fill="#009188"/>
<path d="M64.6802 15.9652C64.6802 18.4729 66.5108 20.5295 68.5171 20.5295C69.6205 20.5295 70.6736 20.053 71.5013 19.1001L71.5768 19.0247L72.4542 20.0278L72.3291 20.1033C71.2253 20.9058 70.0216 21.2818 68.6425 21.2818C65.683 21.2818 63.3008 18.8992 63.3008 15.9652C63.3008 13.0561 65.6834 10.6738 68.6425 10.6738C70.0216 10.6738 71.2253 11.0753 72.3291 11.8524L72.4542 11.9278L71.5768 12.931L71.5013 12.8307C70.6739 11.9027 69.6205 11.4013 68.5171 11.4013C66.5108 11.4013 64.6802 13.4824 64.6802 15.9652Z" fill="#009188"/>
<path d="M53.136 35.8939V36.8916H41.571V35.8939H46.8574V32.3735H42.9807V31.3754H46.8574V28.3542H43.79C43.3723 29.2275 42.9155 29.9896 42.4195 30.6133C42.2367 30.4471 41.806 30.1424 41.5449 30.0036C42.6152 28.784 43.4509 26.8713 43.9597 24.9032L44.9386 25.1248C44.7298 25.8873 44.4945 26.6354 44.2077 27.3425H46.857V24.6816H47.849V27.3425H52.5219V28.3542H47.849V31.3754H52.0389V32.3735H47.849V35.8939H53.1354H53.136Z" fill="#636466"/>
<path d="M60.0111 30.7938C59.4759 30.4057 58.4056 29.7404 57.6094 29.2969L58.1449 28.5484C58.9019 28.9505 59.985 29.5602 60.5596 29.9483L60.0111 30.7938ZM57.9226 36.3791C58.6275 35.3393 59.6325 33.51 60.3896 31.944L61.0944 32.6231C60.4157 34.0783 59.502 35.7968 58.7319 37.0721L57.9226 36.3791ZM60.6637 27.0378C60.1282 26.6358 59.0452 25.9707 58.249 25.5135L58.7841 24.7788C59.5803 25.1809 60.6767 25.8182 61.225 26.206L60.6637 27.0378ZM65.8844 29.6296V31.9027H68.6124V37.1829H67.6857V36.6704H63.039V37.2523H62.1514V31.9027H64.9577V29.6296H61.1982V28.6319H64.9577V26.3865C64.0049 26.539 63.0129 26.6634 62.0858 26.7609C62.0466 26.5113 61.9161 26.1232 61.8247 25.8876C64.0701 25.6383 66.6934 25.2086 68.1425 24.6543L68.9127 25.4578C68.0642 25.7628 67.007 26.0261 65.8841 26.234V28.6315H69.4605V29.6293H65.8841L65.8844 29.6296ZM67.6857 32.859H63.039V35.714H67.6857V32.859Z" fill="#636466"/>
<path d="M86.4563 24.8887V37.3199H85.4894V36.764H76.2252V37.3199H75.2988V24.8887H86.4563ZM85.4894 35.8516V25.8154H76.2252V35.8516H85.4894ZM84.9657 30.3915H82.8579C83.65 31.0046 84.4557 31.7174 84.9253 32.2306L84.3211 32.7725C83.784 32.1023 82.6561 31.1043 81.6758 30.3915H79.7288C79.4875 30.748 79.2054 31.0759 78.9096 31.3752H82.629V31.7031C82.5752 32.7581 82.5214 33.243 82.3469 33.4426C82.2129 33.5992 82.0384 33.6706 81.7427 33.6849C81.5412 33.6989 81.0983 33.7132 80.6819 33.6706C80.6552 33.4853 80.5883 33.2147 80.4941 33.0434C80.9236 33.0861 81.3132 33.0861 81.4473 33.0861C81.5816 33.1004 81.6755 33.0861 81.7427 33.0007C81.8099 32.9154 81.8503 32.6445 81.877 32.06H79.4333V34.1557C79.4333 34.5263 79.5543 34.5976 80.212 34.5976H82.5615C83.0317 34.5976 83.1256 34.4407 83.1791 33.4573C83.3673 33.5856 83.6627 33.6992 83.891 33.7422C83.7971 34.9968 83.5417 35.2961 82.6554 35.2961H80.1582C78.9631 35.2961 78.6142 35.0965 78.6142 34.1697V31.6751C78.1306 32.117 77.5802 32.5162 76.9763 32.8444C76.8686 32.6588 76.6003 32.2882 76.4255 32.1173C77.3252 31.6897 78.0634 31.1052 78.6814 30.3924H76.8015V29.6796H79.2048C79.4063 29.3804 79.5807 29.0811 79.7418 28.7389H77.4325V28.0404H80.0239C80.2388 27.4559 80.3999 26.8287 80.5342 26.1443L81.3667 26.2439C81.2324 26.8997 81.0713 27.4842 80.8965 28.0401H82.2661C82.5345 27.5552 82.8299 26.8854 82.991 26.3865L83.7831 26.6431C83.5414 27.1137 83.2861 27.6269 83.0448 28.0404H84.4545V28.7389H80.6278C80.4804 29.0668 80.3461 29.3804 80.1716 29.6796H84.9648V30.3924L84.9657 30.3915ZM78.6018 27.9825C78.4942 27.6116 78.1854 27.0701 77.8635 26.6992L78.5079 26.4282C78.8437 26.7991 79.1522 27.3123 79.2732 27.6829L78.6018 27.9825Z" fill="#636466"/>
<path d="M16.8581 16.0043C16.8807 15.988 16.9046 15.9728 16.9272 15.9565C18.568 14.7652 20.5851 14.0607 22.7681 14.0607C24.8794 14.0607 26.8361 14.72 28.447 15.8413C28.4571 15.8476 28.4683 15.854 28.4785 15.8604C27.8453 14.8299 26.9418 13.6239 25.9046 12.6972C24.9699 11.8618 23.8696 11.1621 22.4255 10.8154C21.1604 10.5113 20.0573 10.6476 19.2206 10.865C16.0829 11.6807 13.1827 13.7245 11.2834 16.7336C11.1834 16.8919 11.044 17.066 10.6616 17.7928C10.3671 18.3528 10.2127 18.732 10.8498 18.8825C11.8414 19.1169 14.0263 19.0662 14.8461 17.987C15.4491 17.1933 16.0765 16.5808 16.7999 16.0482C16.8072 16.0425 16.8148 16.0371 16.8221 16.0313C16.8342 16.0224 16.846 16.0132 16.8581 16.0043Z" fill="#009188"/>
<path d="M25.5413 10.6836C25.9788 10.9045 26.9214 11.7332 27.27 12.077C30.5354 15.2963 32.224 18.4308 32.6518 22.6901C32.7197 23.3641 32.747 24.0422 32.7333 24.7196C32.7212 25.3102 32.9021 25.6957 33.2504 26.1784C33.7629 26.816 34.3936 27.3662 35.1665 27.6584C35.553 27.8045 35.8959 27.6896 35.9994 27.2627C36.2471 26.2385 36.3808 25.1695 36.3808 24.0692C36.3808 17.4426 31.8263 11.859 25.541 10.6839L25.5413 10.6836Z" fill="#636466"/>
<path d="M28.677 32.0273C28.6544 32.0435 28.6305 32.0588 28.6079 32.0751C26.9671 33.2664 24.95 33.9709 22.767 33.9709C20.6557 33.9709 18.699 33.3116 17.0882 32.1903C17.078 32.1839 17.0668 32.1776 17.0566 32.1712C17.6899 33.2017 18.5934 34.4077 19.6306 35.3344C20.5653 36.1698 21.6655 36.8695 23.1096 37.2162C24.3747 37.5203 25.4778 37.384 26.3145 37.1666C29.4522 36.3509 32.3524 34.3071 34.2518 31.298C34.3517 31.1397 34.4912 30.9656 34.8735 30.2388C35.168 29.6788 35.3224 29.2996 34.6854 29.149C33.6937 28.9147 31.5088 28.9654 30.689 30.0446C30.0861 30.8382 29.4586 31.4508 28.7353 31.9834C28.7279 31.9891 28.7203 31.9945 28.713 32.0003C28.7009 32.0092 28.6891 32.0184 28.677 32.0273Z" fill="#636466"/>
<path d="M19.9937 37.3456C19.5563 37.1247 18.6136 36.296 18.265 35.9522C14.9997 32.733 13.3111 29.5984 12.8832 25.3391C12.8154 24.6651 12.788 23.987 12.8017 23.3096C12.8138 22.719 12.633 22.3335 12.2847 21.8509C11.7721 21.2132 11.1415 20.6631 10.3685 20.3708C9.98203 20.2247 9.63915 20.3396 9.53569 20.7665C9.28801 21.7907 9.1543 22.8597 9.1543 23.96C9.1543 30.5866 13.7087 36.1703 19.994 37.3453L19.9937 37.3456Z" fill="#009188"/>
<path d="M60.5526 21.1768L57.9793 16.8335H56.0606V21.1768H55.0195V10.7793H58.1429C59.3033 10.7793 60.183 11.0569 60.7831 11.6124C61.3829 12.168 61.6831 12.8967 61.6831 13.7992C61.6831 14.5528 61.4675 15.1949 61.0362 15.7256C60.6048 16.2563 59.9671 16.6008 59.1247 16.7593L61.8025 21.1772L60.5526 21.1768ZM56.0606 15.9854H58.1582C58.971 15.9854 59.5835 15.7874 59.9948 15.3904C60.4065 14.994 60.6121 14.4633 60.6121 13.7989C60.6121 13.1148 60.4138 12.5866 60.0174 12.2148C59.6207 11.8429 58.9955 11.657 58.1429 11.657H56.0602L56.0606 15.9854Z" fill="#009188"/>
<path d="M86.456 11.3849V10.6074H80.4375V20.7137V21.1877H81.7167H86.456V20.4103H81.7167V15.7734H85.5787V14.9708H81.7167V11.3849H86.456Z" fill="#009188"/>
<path d="M75.1016 20.412V10.7871H74.0605V20.412V21.1843V21.1894H75.3397H78.8353V20.412H75.1016Z" fill="#009188"/>
</g>
<defs>
<clipPath id="clip0_4595_22547">
<rect width="95.6091" height="48" fill="white"/>
</clipPath>
</defs>
</svg>
