<svg width="89" height="41" viewBox="0 0 89 41" fill="none" xmlns="http://www.w3.org/2000/svg">
<g clip-path="url(#clip0_4595_24785)">
<path d="M68.1641 7.375H72.8351C72.9961 7.375 73.1331 7.51106 73.1331 7.67071V8.41589C73.1331 8.57735 72.9961 8.71341 72.8351 8.71341H68.1641V7.375Z" fill="#636466"/>
<path d="M69.3755 18.3274V5.8699C69.3755 4.30063 69.961 2.9858 71.1556 1.85466C72.1598 0.909018 73.2827 0.362042 74.5704 0.199219V1.53899C73.6356 1.67596 72.807 2.071 72.0976 2.71549C71.1828 3.53958 70.7152 4.60315 70.7152 5.86945V18.327H69.375L69.3755 18.3274Z" fill="#636466"/>
<path d="M78.5208 10.843V11.5882C78.5208 11.7487 78.6533 11.8839 78.8143 11.8839H88.0884C88.0993 11.7329 88.1133 11.5796 88.1133 11.4244C88.1133 7.61285 85.0215 4.52148 81.2058 4.52148C77.3902 4.52148 74.3047 7.61285 74.3047 11.4244C74.3047 15.236 77.3965 18.3274 81.2058 18.3274C84.1498 18.3274 86.6556 16.486 87.6485 13.8895H86.1976C85.2864 15.7272 83.3987 16.9944 81.2063 16.9944C78.134 16.9944 75.6381 14.5008 75.6381 11.424C75.6381 8.34714 78.134 5.85445 81.2063 5.85445C83.9874 5.85445 86.2806 7.8877 86.7033 10.5464H78.8143C78.6533 10.5464 78.5208 10.6802 78.5208 10.8421V10.843Z" fill="#636466"/>
<path d="M65.0117 18.3279V4.8172C65.0117 4.65664 65.1478 4.52148 65.3092 4.52148H66.0576C66.2172 4.52148 66.3506 4.65664 66.3506 4.8172V18.3279H65.0122H65.0117Z" fill="#636466"/>
<path d="M65.3092 1.53627C65.1482 1.53627 65.0117 1.40157 65.0117 1.24192V0.49357C65.0117 0.333015 65.1478 0.199219 65.3092 0.199219H66.0576C66.2172 0.199219 66.3506 0.333015 66.3506 0.49357V1.24192C66.3506 1.40157 66.2177 1.53627 66.0576 1.53627H65.3092Z" fill="#636466"/>
<path d="M63.1966 18.341H57.4838C54.5924 18.341 52.248 15.9971 52.248 13.1053V0.491302C52.248 0.32984 52.3787 0.199219 52.5401 0.199219H53.2631C53.4245 0.199219 53.5552 0.32984 53.5552 0.491302V13.1058C53.5552 15.2751 55.314 17.0339 57.4833 17.0339H63.1966V18.341Z" fill="#636466"/>
<path d="M2.36524 9.32708C2.36524 13.6272 5.50378 17.153 8.94392 17.153C10.8357 17.153 12.6417 16.3362 14.0608 14.7021L14.1901 14.5728L15.6945 16.2926L15.48 16.4219C13.5878 17.798 11.5237 18.4429 9.1589 18.4429C4.08509 18.4429 0 14.3578 0 9.32708C0 4.33899 4.08509 0.253906 9.15935 0.253906C11.5241 0.253906 13.5878 0.941935 15.4804 2.27491L15.6949 2.40417L14.1905 4.12401L14.0613 3.95212C12.6426 2.36108 10.8366 1.50116 8.94437 1.50116C5.50423 1.50116 2.36524 5.07011 2.36524 9.32708Z" fill="#009188"/>
<path d="M17.5098 1.98381V0.650391H32.8609L32.8178 1.98381H26.3249V17.9795H24.0889V1.98381H17.5098Z" fill="#009188"/>
<path d="M44.9938 0.650391V1.98381H36.8672V8.13253H43.4889V9.50859H36.8672V17.9795H34.6738V0.650391H44.9938Z" fill="#009188"/>
<path d="M3.70722 31.6511H7.22265V30.1349H4.22426V29.0663H7.22265V27.5846H8.56696V29.0663H11.5654V30.1349H8.56696V31.6511H12.0824V32.7541H3.70722V31.6511ZM4.53449 33.7192H11.1862V38.1998H4.53449V33.7192ZM9.94529 37.0623V34.8567H5.77494V37.0623H9.94529ZM37.2025 35.7185L36.9308 34.8019C38.3713 33.4054 39.8906 31.2384 40.6145 29.4459H37.4088V28.24H39.5115V25.6552H40.7524V28.24H42.5443C42.2686 29.377 41.4073 31.066 40.9937 31.8243C41.4413 32.3758 41.7865 32.6856 42.2341 33.0992V34.2712C41.6191 34.0213 41.205 33.7133 40.8213 33.4095V40.1991H39.443V33.7886C38.6502 34.6499 38.0025 35.2545 37.2025 35.7185ZM42.6477 26.1718H51.574V27.3088H42.6477V26.1718ZM42.7511 33.0303H51.574V39.8888H42.7511V33.0303ZM50.8846 28.3778V31.9277H43.4061V28.3778H50.8846ZM46.5079 35.8568V34.0989H44.0955V35.8568H46.5079ZM46.5079 38.8207V36.9598H44.0955V38.8207H46.5079ZM49.5407 30.8596V29.4809H44.7504V30.8596H49.5407ZM50.2301 35.8573V34.0993H47.8172V35.8573H50.2301ZM50.2301 38.8212V36.9603H47.8172V38.8212H50.2301ZM0.0824848 39.6734C1.81185 37.1258 1.81231 34.5805 1.81231 31.5132V25.9641H13.9782V38.0955C13.9782 39.5772 13.4272 40.1292 11.8071 40.1292C10.8419 40.1292 10.2215 39.8879 9.73938 39.6122V38.9572C10.2909 39.0607 10.8764 39.0951 11.5313 39.0951C12.3931 39.0951 12.6344 38.8194 12.6344 37.9232V27.17H3.12169V31.9259C3.12169 35.0967 2.95887 38.1985 0.433529 40.1977L0.0820312 39.6729L0.0824848 39.6734ZM30.3099 37.2723C29.7094 36.7389 28.8336 35.9189 28.1642 34.9592C27.1288 33.4743 26.629 31.8488 26.423 30.6524H32.8008V29.3802H26.302V25.6543H24.9531V29.3802H18.4543V30.6524H24.832C24.6297 31.8878 24.1345 33.5805 23.0886 35.1243C22.4191 36.1126 21.5434 36.9567 20.9438 37.5054C20.2199 38.1513 19.2833 38.8307 18.2329 39.4865L18.5073 40.1904C20.4304 39.4466 22.4568 38.0955 23.475 36.9249C24.1163 36.1874 25.0647 34.8681 25.6275 33.1736C26.0997 34.4023 26.9401 35.6627 28.1053 36.9852C29.1275 38.1454 30.7145 39.2598 32.6208 40.1981L33.0226 39.1967C31.9722 38.5595 31.0333 37.8987 30.3104 37.2719L30.3099 37.2723Z" fill="#636466"/>
<path d="M67.5028 37.1688C66.9023 36.6354 66.0265 35.8154 65.3571 34.8557C64.3216 33.3708 63.8218 31.7453 63.6159 30.5489L63.4948 29.2767V25.5508H62.146V29.2767L62.0249 30.5489C61.8226 31.7843 61.3273 33.4769 60.2814 35.0208C59.612 36.0091 58.7362 36.8531 58.1366 37.4019C57.4128 38.0478 56.4762 38.7272 55.4258 39.383L55.7002 40.0869C57.6232 39.3431 59.6496 37.992 60.6679 36.8214C61.3092 36.0839 62.2575 34.7646 62.8204 33.0701C63.2925 34.2988 64.1329 35.5592 65.2981 36.8817C66.3204 38.0419 67.9074 39.1562 69.8136 40.0946L70.2155 39.0932C69.165 38.456 68.2262 37.7952 67.5032 37.1684L67.5028 37.1688Z" fill="#636466"/>
<path d="M74.084 29.3945H88.1634V30.4436L87.5643 31.9013L86.5279 31.6346L86.8554 30.4436H74.084V29.3945Z" fill="#636466"/>
<path d="M74.2969 26.2551H80.2351V25.6016H82.0897V26.2551H87.95V27.306H82.0897V27.857H86.7544V28.8462H75.5772V27.857H80.2351V27.306H74.2969V26.2551Z" fill="#636466"/>
<path d="M86.9421 33.5621H74.748V32.5117H80.1266V31.9833H75.5984V30.9941H85.8604V31.9833H81.9658V32.5117H86.9421V33.5621Z" fill="#636466"/>
<path d="M74.3066 35.1651H84.9645V35.8H81.123V36.8504H84.9645V37.8813C84.9645 38.7775 84.7015 39.0533 83.7608 39.0533C83.046 39.0533 82.407 39.0188 81.8051 38.9154V39.5703C82.3317 39.8461 83.0084 40.0874 84.062 40.0874C85.8299 40.0874 86.4313 39.5359 86.4313 38.0537V36.8509H87.0254V35.8005H86.4313V35.1655H87.9393V34.1133H74.3071V35.1655L74.3066 35.1651Z" fill="#636466"/>
<path d="M74.752 39.3002H80.3909V35.7988H74.752V39.3002ZM76.0958 36.8511H79.047V38.2475H76.0958V36.8511Z" fill="#636466"/>
<path d="M84.1378 37.8607L81.7536 37.0996L81.0605 37.7822L83.1446 38.8394L84.1378 37.8607Z" fill="#636466"/>
</g>
<defs>
<clipPath id="clip0_4595_24785">
<rect width="88.1629" height="40" fill="white" transform="translate(0 0.199219)"/>
</clipPath>
</defs>
</svg>
